<svg width="56" height="56" viewBox="0 0 56 56" fill="none" xmlns="http://www.w3.org/2000/svg">
<rect width="56" height="56" rx="12" fill="#92F7C3"/>
<path d="M21.5766 25.9603L23.5266 26.7853C23.7599 26.3186 24.0016 25.8686 24.2516 25.4353C24.5016 25.002 24.7766 24.5686 25.0766 24.1353L23.6766 23.8603V23.8603V23.8603L21.5766 25.9603V25.9603M25.1266 28.0353L27.9766 30.8603C28.6766 30.5936 29.4266 30.1853 30.2266 29.6353C31.0266 29.0853 31.7766 28.4603 32.4766 27.7603C33.6432 26.5936 34.5557 25.2978 35.2141 23.8728C35.8724 22.4478 36.1599 21.1353 36.0766 19.9353C34.8766 19.852 33.5599 20.1395 32.1266 20.7978C30.6932 21.4561 29.3932 22.3686 28.2266 23.5353C27.5266 24.2353 26.9016 24.9853 26.3516 25.7853C25.8016 26.5853 25.3932 27.3353 25.1266 28.0353V28.0353M29.5766 26.4103C29.1932 26.027 29.0016 25.5561 29.0016 24.9978C29.0016 24.4395 29.1932 23.9686 29.5766 23.5853C29.9599 23.202 30.4349 23.0103 31.0016 23.0103C31.5682 23.0103 32.0432 23.202 32.4266 23.5853C32.8099 23.9686 33.0016 24.4395 33.0016 24.9978C33.0016 25.5561 32.8099 26.027 32.4266 26.4103C32.0432 26.7936 31.5682 26.9853 31.0016 26.9853C30.4349 26.9853 29.9599 26.7936 29.5766 26.4103V26.4103M30.0516 34.4353L32.1516 32.3353V32.3353V32.3353L31.8766 30.9353C31.4432 31.2353 31.0099 31.5061 30.5766 31.7478C30.1432 31.9895 29.6932 32.227 29.2266 32.4603L30.0516 34.4353V34.4353M37.8766 18.1103C38.1932 20.127 37.9974 22.0895 37.2891 23.9978C36.5807 25.9061 35.3599 27.727 33.6266 29.4603V29.4603V29.4603L34.1266 31.9353C34.1932 32.2686 34.1766 32.5936 34.0766 32.9103C33.9766 33.227 33.8099 33.502 33.5766 33.7353L29.3766 37.9353L27.2766 33.0103L23.0016 28.7353L18.0766 26.6353L22.2516 22.4353C22.4849 22.202 22.7641 22.0353 23.0891 21.9353C23.4141 21.8353 23.7432 21.8186 24.0766 21.8853L26.5516 22.3853V22.3853V22.3853C28.2849 20.652 30.1016 19.427 32.0016 18.7103C33.9016 17.9936 35.8599 17.7936 37.8766 18.1103V18.1103M19.8516 31.9103C20.4349 31.327 21.1474 31.0311 21.9891 31.0228C22.8307 31.0145 23.5432 31.302 24.1266 31.8853C24.7099 32.4686 24.9974 33.1811 24.9891 34.0228C24.9807 34.8645 24.6849 35.577 24.1016 36.1603C23.6849 36.577 22.9891 36.9353 22.0141 37.2353C21.0391 37.5353 19.6932 37.802 17.9766 38.0353C18.2099 36.3186 18.4766 34.9728 18.7766 33.9978C19.0766 33.0228 19.4349 32.327 19.8516 31.9103V31.9103M21.2766 33.3103C21.1099 33.477 20.9432 33.7811 20.7766 34.2228C20.6099 34.6645 20.4932 35.1103 20.4266 35.5603C20.8766 35.4936 21.3224 35.3811 21.7641 35.2228C22.2057 35.0645 22.5099 34.902 22.6766 34.7353C22.8766 34.5353 22.9849 34.2936 23.0016 34.0103C23.0182 33.727 22.9266 33.4853 22.7266 33.2853C22.5266 33.0853 22.2849 32.9895 22.0016 32.9978C21.7182 33.0061 21.4766 33.1103 21.2766 33.3103V33.3103" fill="#0F5238"/>
</svg>
